# xmcd
#
# Track frame offsets: 
#        150
#        16380
#        36275
#        50125
#        63120
#        77970
#        91020
#        102910
#        122345
#        136090
#        153005
#        168755
#        181095
#        192770
#        205070
#        220305
#        234565
#        247615
#        263815
#        282360
#        295120
#        307910
#        320060
#        331460
#        340085
#
# Disc length: 4675 seconds
#
# Revision: 0
# Processed by: cddbd v1.5.2PL0 Copyright (c) Steve Scherf et al.
# Submitted via: ExactAudioCopy v1.1
#
DISCID=4f124119
DTITLE=Various Artist - 100 Country Hits [CD2]
DYEAR=2008
DGENRE=Country
TTITLE0=John Denver - Leaving On A Jet Plane
TTITLE1=Lonestar - Amazed
TTITLE2=Frankie Miller - Darlin'
TTITLE3=Dolly Parton - I Will Always Love You
TTITLE4=Tanya Tucker - Delta Dawn
TTITLE5=Charlie Rich - Behind Closed Doors
TTITLE6=Tammy Wynette - Stand By Your Man
TTITLE7=Kenny Rogers - Coward Of The County
TTITLE8=Glen Campbell - Wichita Linemen
TTITLE9=Ray Price - For The Good Times
TTITLE10=Willie Nelson - Always On My Mind
TTITLE11=Roy Orbinson - Crying
TTITLE12=Don Gibson - I Cant Stop Loving You
TTITLE13=Jim Reeves - I Love You Because
TTITLE14=Crystal Gayle - When I Dream
TTITLE15=Dr. Hook - A Little Bit More
TTITLE16=Hal Ketchum - Stay Forever
TTITLE17=Debby Boone - You Light Up My Life
TTITLE18=Juice Newton - Angel Of The Morning
TTITLE19=Bobbie Gentry - I'll Never Fall In Love Again
TTITLE20=Ray Stevens - Misty
TTITLE21=Billie Jo Spears - What I've Got In Mind
TTITLE22=Glen Campbell - All I Have To Do Is Dream
TTITLE23=Elvis Presley - Welcome To My World
TTITLE24=Slim Whitman - Rose Marie
EXTD=
EXTT0=
EXTT1=
EXTT2=
EXTT3=
EXTT4=
EXTT5=
EXTT6=
EXTT7=
EXTT8=
EXTT9=
EXTT10=
EXTT11=
EXTT12=
EXTT13=
EXTT14=
EXTT15=
EXTT16=
EXTT17=
EXTT18=
EXTT19=
EXTT20=
EXTT21=
EXTT22=
EXTT23=
EXTT24=
PLAYORDER=
